<svg id="Layer_1" data-name="Layer 1" xmlns="http://www.w3.org/2000/svg" width="571.52739" height="518.96368" viewBox="0 0 571.52739 518.96368">
  <defs>
    <style>
      .cls-1 {
        fill: #53c1e9;
        fill-rule: evenodd;
      }
    </style>
  </defs>
  <title>ASC_star_REAL_no_bg_OR_OUTLINE [Converted]</title>
  <path class="cls-1" d="M1130.43788,1100.72611c.34364-23.31423-3.74508-43.3601-7.71763-63.37805l-13.79817-90.50666-3.27414-33.443c-.92071-5.74383-.499-13.62516,1.63707-17.30618,4.06518-7.00552,14.24152-10.08946,23.15287-12.16111,15.26094-3.54774,32.742.39868,44.20093,4.44348,3.87425,1.36754,9.64958,2.33077,12.1611,5.14508,4.66633,5.2289,4.7604,33.14647,6.54829,42.79773l12.395,79.74876c2.06741,10.4281,1.47937,26.69666,5.84668,35.08011,4.129,7.926,19.68644-.89382,25.72541-3.27415,17.853-7.037,37.24686-11.44256,57.2975-16.83845,6.58428-1.77192,17.48161-5.66658,25.25767-2.57254,9.50694,3.78276,6.91721,18.392,3.74188,27.12862-4.81149,13.23838-13.4688,22.75281-21.5158,32.74142-4.95335,6.14854-11.403,9.2311-13.79817,18.24166h90.2728l25.7254.23386h12.62884c14.46558,2.302,29.53008.715,43.26546,3.04028,12.9403,2.19071,44.559-.985,47.2412,10.29016,2.16269,9.09125-6.75514,11.19411-12.1611,13.09657-13.44492,4.73156-26.38407,9.64851-41.16065,13.79818-24.63935,6.91943-51.80768,9.67294-78.34556,15.43524l-56.362,9.12083-71.79728,11.22564v2.1048c1.81979,5.274,5.00034,6.75557,8.887,9.82243l17.77392,17.30618c21.9897,21.98861,45.49709,43.4614,65.01512,67.82153l22.2174,24.78994c1.97655,2.72159,3.41734,7.6647.93547,10.99177-2.318,3.10735-7.22737,2.37913-10.524.7016l-26.89475-15.43525c-22.994-14.314-44.197-30.3161-65.95059-45.838-11.35919-8.10517-22.66918-17.77947-35.0801-24.55608.56378,50.0084-8.50489,89.05678-16.83845,131.19958-2.72507,13.78061-2.50128,28.40516-11.69337,35.54784-2.04823,1.59156-6.02814,5.26293-10.524,3.97574-10.14827-2.90547-18.649-24.54559-22.68514-34.84623-8.111-20.70014-11.76174-44.41251-16.60458-68.99087l-4.67734-34.84623-3.27415-27.59635-.7016-15.66911-.46773.46774-40.45905,33.91076c-5.44214,4.35611-10.10658,11.7157-17.54,13.79817-7.0298,1.9694-12.27-2.63743-16.13685-4.91121-11.81963-6.95014-25.45-10.55841-35.7817-18.70939-5.63295-4.444-11.50992-11.53368-13.79818-19.17712-1.648-5.50489,2.47114-14.22524-2.33867-16.60458-2.5347-1.32493-18.62035,3.2828-25.95927,2.10481-17.65074-2.83317-31.95585-6.27576-42.09612-16.37072-4.04715-4.029-8.36864-10.69239-4.91122-18.70938,3.2672-7.576,12.51857-11.73185,14.96751-17.54006,1.72943-4.10171-.45043-8.28536.46774-13.33044a20.09207,20.09207,0,0,1,9.58856-14.26591c6.26374-3.72375,14.544-3.18036,23.38673-4.67735l52.15242-5.37894c5.98027-1.00788,17.43076.15519,21.98353-2.33868-6.02164-2.84532-23.11522-23.98822-16.37072-34.84623,3.87614-6.24021,18.59409-11.75918,27.59635-13.33044,8.34661-1.45681,15.32158,3.22117,19.87872,6.08055l18.94326,13.33044C1115.74341,1093.069,1121.49107,1100.07351,1130.43788,1100.72611Z" transform="translate(-936.2363 -882.55059)"/>
</svg>
