<svg xmlns="http://www.w3.org/2000/svg" xmlns:xlink="http://www.w3.org/1999/xlink" xmlns:serif="http://www.serif.com/" version="1.1" xml:space="preserve" style="fill-rule:evenodd;clip-rule:evenodd;stroke-linejoin:round;stroke-miterlimit:2;" viewBox="4.02 39.52 1491.97 1420.96">
    <g transform="matrix(46.0455,0,0,46.0455,895.826,671.354)">
        <path d="M0,3.416L0.093,3.138L7.7,2.274L13.034,0.538L10.937,-5.934L5.602,-4.198L-1.064,-0.418L-1.3,-0.59L0.231,-8.105L0.231,-13.722L-6.565,-13.722L-6.565,-8.105L-5.034,-0.59L-5.269,-0.418L-11.935,-4.198L-17.268,-5.934L-19.368,0.538L-14.033,2.274L-6.426,3.138L-6.333,3.416L-11.984,8.594L-15.279,13.138L-9.782,17.138L-6.484,12.595L-3.313,5.613L-3.02,5.613L0.15,12.595L3.449,17.138L8.945,13.138L5.651,8.594L0,3.416Z" style="fill:rgb(81,193,233);fill-rule:nonzero;"/>
    </g>
</svg>